<svg version="1.0" xmlns="http://www.w3.org/2000/svg" width="512.000000pt" height="512.000000pt"
    viewBox="0 0 512.000000 512.000000" preserveAspectRatio="xMidYMid meet">

    <g transform="translate(0.000000,512.000000) scale(0.100000,-0.100000)" fill="#000000" stroke="none">
        <path d="M1351 5004 c-118 -32 -237 -125 -293 -230 -62 -115 -58 25 -58 -2204
0 -1797 2 -2043 15 -2095 44 -166 171 -294 334 -337 60 -15 158 -17 1142 -17
693 -1 1095 3 1130 9 180 34 336 190 369 369 14 74 14 4068 0 4142 -32 172
-171 318 -347 364 -84 22 -2210 21 -2292 -1z m2251 -194 c63 -18 129 -70 162
-130 28 -49 31 -65 34 -157 l4 -103 -1302 0 -1302 0 4 103 c3 92 6 108 34 157
32 58 99 112 158 129 45 13 2161 14 2208 1z m198 -2240 l0 -1650 -1300 0
-1300 0 0 1650 0 1650 1300 0 1300 0 0 -1650z m-2 -1953 c-3 -92 -6 -108 -34
-157 -33 -60 -99 -112 -162 -130 -51 -14 -2153 -14 -2204 0 -63 18 -129 70
-162 130 -28 49 -31 65 -34 157 l-4 103 1302 0 1302 0 -4 -103z" />
        <path d="M2252 4007 c-18 -8 -68 -99 -188 -339 -90 -180 -164 -337 -164 -348
0 -51 49 -100 100 -100 58 0 67 14 236 352 90 180 164 337 164 347 0 74 -80
121 -148 88z" />
        <path d="M1645 3901 c-50 -31 -233 -225 -240 -254 -4 -15 -4 -39 0 -54 9 -37
231 -259 268 -268 76 -19 141 46 122 122 -3 14 -38 60 -78 100 l-71 74 66 67
c70 71 88 98 88 131 0 53 -48 101 -102 101 -13 0 -36 -8 -53 -19z" />
        <path d="M2551 3906 c-45 -25 -63 -84 -40 -129 6 -12 41 -52 77 -89 l66 -67
-71 -74 c-40 -40 -75 -86 -78 -100 -19 -76 46 -141 123 -122 36 9 258 231 267
268 13 50 -5 80 -113 190 -136 139 -170 157 -231 123z" />
        <path d="M1551 2806 c-67 -37 -65 -143 4 -174 37 -17 1253 -17 1290 0 29 13
55 55 55 88 0 33 -26 75 -55 88 -40 18 -1261 16 -1294 -2z" />
        <path d="M1551 2406 c-67 -37 -65 -143 4 -174 37 -17 1253 -17 1290 0 29 13
55 55 55 88 0 33 -26 75 -55 88 -40 18 -1261 16 -1294 -2z" />
        <path d="M1551 2006 c-67 -37 -65 -143 4 -174 19 -9 254 -12 946 -12 999 0
961 -2 987 55 23 51 7 107 -39 131 -40 20 -1861 20 -1898 0z" />
        <path d="M1551 1606 c-67 -37 -65 -143 4 -174 19 -9 254 -12 946 -12 999 0
961 -2 987 55 23 51 7 107 -39 131 -40 20 -1861 20 -1898 0z" />
        <path d="M4678 4499 c-43 -22 -78 -81 -78 -129 0 -50 35 -107 80 -130 21 -11
53 -20 70 -20 17 0 49 9 70 20 45 23 80 80 80 130 0 50 -35 107 -80 130 -49
25 -94 25 -142 -1z" />
        <path d="M651 4306 c-87 -48 -50 -186 49 -186 51 0 100 49 100 99 0 75 -83
124 -149 87z" />
        <path d="M151 3206 c-87 -48 -50 -186 49 -186 51 0 100 49 100 99 0 75 -83
124 -149 87z" />
        <path d="M4451 3106 c-87 -48 -50 -186 49 -186 51 0 100 49 100 99 0 75 -83
124 -149 87z" />
        <path d="M378 1299 c-43 -22 -78 -81 -78 -129 0 -50 35 -107 80 -130 21 -11
53 -20 70 -20 76 0 150 74 150 150 0 50 -35 107 -80 130 -49 25 -94 25 -142
-1z" />
        <path d="M4551 1006 c-87 -48 -50 -186 49 -186 51 0 100 49 100 99 0 75 -83
124 -149 87z" />
    </g>
</svg>