<svg width="561" height="435" viewBox="0 0 561 435" fill="none" xmlns="http://www.w3.org/2000/svg">
    <circle cx="424.5" cy="213.5" r="136.5" fill="#173584" />
    <circle cx="111.5" cy="140.5" r="111" stroke="#173584" />
    <circle cx="145.5" cy="396.5" r="28.5" stroke="#5077DF" stroke-width="20" />
    <mask id="mask0_33_22" style="mask-type:alpha" maskUnits="userSpaceOnUse" x="218" y="0" width="166" height="166">
        <circle cx="301" cy="83" r="83" fill="#FFFFFF" />
    </mask>
    <g mask="url(#mask0_33_22)">
        <line x1="191" y1="17" x2="410" y2="17" stroke="white" stroke-width="2" />
        <line x1="191" y1="7" x2="410" y2="7" stroke="white" stroke-width="2" />
        <line x1="191" y1="27" x2="410" y2="27" stroke="white" stroke-width="2" />
        <line x1="191" y1="37" x2="410" y2="37" stroke="white" stroke-width="2" />
        <line x1="191" y1="47" x2="410" y2="47" stroke="white" stroke-width="2" />
        <line x1="191" y1="57" x2="410" y2="57" stroke="white" stroke-width="2" />
        <line x1="191" y1="67" x2="410" y2="67" stroke="white" stroke-width="2" />
        <line x1="191" y1="77" x2="410" y2="77" stroke="white" stroke-width="2" />
        <line x1="191" y1="87" x2="410" y2="87" stroke="white" stroke-width="2" />
        <line x1="191" y1="97" x2="410" y2="97" stroke="white" stroke-width="2" />
        <line x1="191" y1="107" x2="410" y2="107" stroke="white" stroke-width="2" />
        <line x1="191" y1="117" x2="410" y2="117" stroke="white" stroke-width="2" />
        <line x1="191" y1="127" x2="410" y2="127" stroke="white" stroke-width="2" />
        <line x1="191" y1="137" x2="410" y2="137" stroke="white" stroke-width="2" />
        <line x1="191" y1="147" x2="410" y2="147" stroke="white" stroke-width="2" />
        <line x1="191" y1="157" x2="410" y2="157" stroke="white" stroke-width="2" />
    </g>
</svg>