<svg width="200" height="51" viewBox="0 0 200 51" fill="none" xmlns="http://www.w3.org/2000/svg">
<path d="M24.1968 1.00492C23.8674 1.30643 23.5126 1.83407 23.3606 2.18583C23.2339 2.51246 23.1325 5.22603 23.1325 8.21597V13.618L22.5751 13.216C18.5462 10.3517 12.5661 9.99989 7.82769 12.3617C4.76165 13.8944 1.59425 17.613 0.555349 20.829C-0.0781305 22.7888 -0.179487 26.0803 0.301957 28.1406C0.783401 30.1255 2.15172 32.8642 3.368 34.2461C4.76165 35.8039 7.24489 37.5376 9.24668 38.3667C11.1725 39.1456 15.0494 39.422 17.3806 38.9446C22.1443 37.9647 26.8321 33.5175 28.2257 28.6431C28.4791 27.7888 28.5298 24.4974 28.4791 14.6984L28.4031 1.88432L27.8203 1.2813C26.9588 0.401906 24.9823 0.251152 24.1968 1.00492ZM17.9634 16.9597C19.9398 17.9145 21.4855 19.3969 22.3977 21.231C23.1579 22.7637 23.1832 22.9647 23.0819 25.3014C23.0058 27.4873 22.9045 27.9396 22.271 29.02C21.1561 30.8793 19.6864 32.3366 18.0901 33.0903C16.8484 33.6934 16.367 33.7939 14.3905 33.7939C12.3887 33.7939 11.9326 33.7185 10.5897 33.0652C8.7399 32.1607 6.81412 30.3014 6.07929 28.6934C5.62318 27.7386 5.52183 27.0602 5.52183 25.1255C5.52183 22.9898 5.59784 22.5878 6.25666 21.3064C7.54896 18.7436 9.70279 16.9597 12.1607 16.3315C13.7064 15.9547 16.4937 16.2562 17.9634 16.9597Z" fill="white"/>
<path d="M121.322 1.25623L120.562 2.03512L120.435 7.83914L120.308 13.618L119.675 13.1155C117.8 11.6582 114.86 10.804 111.693 10.804C107.917 10.804 104.649 12.1105 101.912 14.7487C98.6433 17.8643 97.351 20.7286 97.3257 24.8743C97.3257 29.221 99.1248 33.1406 102.368 35.804C105.384 38.2663 107.841 39.1708 111.566 39.1959C117.749 39.1959 122.614 35.7537 125.199 29.5979L125.858 28.015L125.782 14.9497L125.731 1.88437L125.123 1.28135C124.717 0.854217 124.16 0.653212 123.298 0.577835C122.183 0.477332 122.006 0.527584 121.322 1.25623ZM115.266 16.9597C117.242 17.9145 118.788 19.3969 119.7 21.2311C120.46 22.7889 120.486 22.9396 120.384 25.3015C120.308 27.2361 120.156 28.015 119.7 28.8693C118.839 30.5276 117.014 32.3115 115.393 33.0904C114.151 33.6934 113.669 33.7939 111.693 33.7939C109.691 33.7939 109.235 33.6934 107.943 33.0904C106.118 32.1859 104.243 30.402 103.483 28.7939C102.748 27.3115 102.52 24.6733 102.951 22.9145C103.458 20.7537 105.662 18.0401 107.689 16.9849C109.818 15.9045 113.061 15.9045 115.266 16.9597Z" fill="white"/>
<path d="M169.593 25.5024V50.5024H184.797H200V25.5024V0.502445H184.797H169.593V25.5024ZM189.13 11.7336C193.539 13.216 197.137 16.9346 198.505 21.3818C198.986 22.9396 199.012 23.5929 198.936 32.0602C198.86 40.7788 198.834 41.1055 198.302 42.1105C196.706 45.0502 193.615 47.7135 190.244 49.0452C188.572 49.6984 187.761 49.8492 185.557 49.9497C180.793 50.1507 177.651 48.9447 174.255 45.6281C171.95 43.3668 171.113 41.9849 171.113 40.4522C171.113 38.9949 172.355 37.9396 174.078 37.9396C174.788 37.9396 176.688 39.6733 176.688 40.3266C176.688 40.9296 179.222 43.1909 180.717 43.8944C182.567 44.7487 185.582 44.9748 187.635 44.3718C189.51 43.8442 191.283 42.613 192.449 41.0803C193.336 39.9246 193.412 39.6984 193.412 38.1406V36.4572L192.12 37.3366C190.092 38.6934 188.445 39.0703 184.797 39.0703C181.198 39.0452 179.982 38.6934 177.195 36.9095C174.762 35.3517 173.318 33.7688 172.178 31.3818C170.1 27.0854 170.049 23.1406 172.026 19.1457C174.002 15.1507 178.082 12.0602 182.516 11.206C183.884 10.9547 187.736 11.2562 189.13 11.7336Z" fill="white"/>
<path d="M181.502 17.1106C179.855 17.7638 177.879 19.6734 176.941 21.5076C176.384 22.5628 176.308 23.0653 176.308 25.2513C176.308 27.5628 176.359 27.8643 177.043 29.0955C177.904 30.603 179.095 31.7839 180.894 32.8141C182.06 33.4925 182.313 33.5427 184.796 33.5427C187.178 33.5427 187.584 33.4673 188.724 32.8643C190.32 32.0352 191.993 30.2764 192.804 28.5679C193.538 26.9598 193.64 23.8945 193.006 22.0352C192.5 20.5277 190.827 18.7186 189.003 17.6131C187.71 16.8342 187.356 16.7588 185.227 16.6583C183.276 16.5829 182.668 16.6583 181.502 17.1106Z" fill="white"/>
<path d="M34.5858 4.67321C33.1668 5.65311 32.9641 7.61291 34.155 8.89432C35.0166 9.82396 36.7143 9.82396 37.8039 8.89432C38.4627 8.34155 38.5894 8.06517 38.5894 7.1104C38.5894 5.72849 38.2853 5.1506 37.3224 4.64809C36.3849 4.1707 35.2953 4.1707 34.5858 4.67321Z" fill="white"/>
<path d="M131.584 4.99999C130.571 5.97989 130.419 6.83416 130.976 8.06532C131.508 9.27135 131.964 9.54773 133.333 9.54773C134.042 9.54773 134.549 9.34672 135.106 8.89446C135.765 8.3417 135.892 8.06532 135.892 7.11054C135.892 5.72863 135.588 5.15075 134.625 4.64823C133.459 4.04522 132.421 4.17085 131.584 4.99999Z" fill="white"/>
<path d="M34.8645 11.0551C34.5351 11.1807 34.0536 11.6581 33.7749 12.1104C33.2681 12.9144 33.2681 13.2913 33.3188 25.3265L33.3948 37.7385L34.231 38.4672C34.6871 38.8692 35.3459 39.1958 35.6753 39.1958C36.6382 39.1958 38.0065 38.5677 38.3106 37.9898C38.5133 37.638 38.5893 33.442 38.5893 24.9244V12.3868L38.0319 11.8591C37.4491 11.3315 36.2581 10.7787 35.726 10.829C35.5486 10.829 35.1686 10.9295 34.8645 11.0551Z" fill="white"/>
<path d="M132.091 11.1305C131.736 11.3064 131.255 11.8341 131.027 12.3114C130.621 13.1155 130.571 14.2712 130.571 25.1255C130.571 36.6079 130.596 37.0853 131.077 37.8893C131.356 38.3416 131.863 38.819 132.192 38.9697C133.054 39.3718 134.549 39.0451 135.284 38.3165L135.892 37.7135V25.0501V12.3868L135.334 11.8592C134.752 11.3315 133.586 10.8039 133.029 10.8039C132.851 10.8039 132.446 10.9547 132.091 11.1305Z" fill="white"/>
<path d="M52.5513 11.4572C49.2826 12.3115 46.0392 14.6984 44.0881 17.5879C42.6691 19.6984 42.0609 21.608 41.9342 24.3718C41.8075 27.2864 42.2636 29.1959 43.708 31.9849C45.3804 35.1758 48.9532 37.8643 52.8554 38.8693C55.2373 39.4723 58.4807 39.1959 61.0146 38.216C63.2698 37.3115 65.4743 35.9296 66.0571 35.0502C66.9946 33.618 66.1585 31.3065 64.5874 31.0301C63.5232 30.8291 62.7883 31.0301 61.6988 31.8341C57.7712 34.7487 53.0835 34.4472 49.6373 31.005C47.8636 29.2713 47.3315 27.9145 47.3315 25.2512C47.3315 23.2663 47.4328 22.814 48.041 21.5577C48.9532 19.6984 50.6762 17.9648 52.3486 17.211C53.4382 16.6834 54.0463 16.5829 55.9468 16.5829C58.43 16.5829 59.0382 16.7839 61.7494 18.4422C63.5485 19.5226 64.6128 19.5979 65.601 18.7688C66.1331 18.3165 66.3105 17.8894 66.4118 16.8844C66.5132 15.603 66.5132 15.5527 65.4236 14.5728C64.03 13.3165 61.42 11.9346 59.4689 11.4321C57.6445 10.9547 54.3757 10.9798 52.5513 11.4572Z" fill="white"/>
<path d="M142.176 11.7839L141.34 12.5125V25.1256V37.7386L142.176 38.4673C142.632 38.8693 143.291 39.1959 143.62 39.1959C144.431 39.1959 145.901 38.5929 146.18 38.1658C146.306 37.9648 146.458 34.4221 146.534 30.2763C146.686 21.7336 146.712 21.608 148.942 19.1708C150.513 17.4371 152.033 16.7336 154.516 16.6331C159.255 16.4321 162.549 19.221 163.258 23.9949C163.385 24.9497 163.512 28.4422 163.512 31.7336C163.512 37.6884 163.512 37.7135 164.12 38.3165C164.931 39.1205 166.274 39.3467 167.287 38.8442C168.884 38.015 168.884 38.015 168.782 29.5979C168.681 22.1356 168.681 21.9597 168.047 20.3015C167.693 19.3718 167.008 18.0401 166.552 17.3366C164.703 14.4723 160.902 11.9597 157.481 11.2813C154.238 10.6783 150.107 11.407 147.725 13.0401L146.636 13.7688L146.382 12.9899C146.104 12.0351 144.735 11.0552 143.722 11.0552C143.266 11.0552 142.657 11.3316 142.176 11.7839Z" fill="white"/>
<path d="M78.3719 11.7839C75.0779 12.8391 72.0118 15.1256 70.2381 17.8643C66.7413 23.2914 67.7295 30.7537 72.5186 35.2261C74.343 36.9598 76.6742 38.3165 78.7267 38.8442C80.4244 39.2964 83.9719 39.2964 85.7203 38.8191C90.6361 37.5125 94.7157 33.4924 95.9827 28.7185C96.4641 26.8844 96.4641 23.6432 95.9827 21.8592C94.7157 17.1105 90.7628 13.0904 85.999 11.7085C84.0986 11.1557 80.1964 11.206 78.3719 11.7839ZM85.8977 17.4371C87.5954 18.2412 89.3945 20.0251 90.2053 21.7587C90.7881 23.015 90.8388 23.3919 90.7375 25.603C90.6614 27.7135 90.5601 28.1909 89.9266 29.2462C88.913 30.9547 87.418 32.3618 85.8217 33.0904C83.8705 33.9698 80.7285 33.9698 78.828 33.0904C76.9276 32.2361 75.2299 30.6281 74.3937 28.9447C73.7856 27.6884 73.6842 27.2361 73.6842 25.2512C73.7095 23.3919 73.8109 22.7889 74.2923 21.8592C75.6353 19.2713 77.5864 17.5376 79.8416 16.9095C81.4887 16.4572 84.2253 16.6834 85.8977 17.4371Z" fill="white"/>
</svg>
